<svg width="30" height="30" viewBox="0 0 30 30" fill="none" xmlns="http://www.w3.org/2000/svg">
<rect x="1" y="1" width="28" height="28" rx="14" fill="#FC133D"/>
<rect x="1" y="1" width="28" height="28" rx="14" stroke="white" stroke-width="2"/>
<path d="M12.0098 15.4573H10.3176V17.2608H9.32012V15.4573H7.63684V14.5622H9.32012V12.7631H10.3176V14.5622H12.0098V15.4573ZM17.047 17.096V18H13.4221V17.096H14.7046V13.5602C14.7046 13.483 14.7061 13.4044 14.7091 13.3242C14.7121 13.2441 14.7165 13.1624 14.7225 13.0793L13.8764 13.7829C13.817 13.8274 13.7591 13.8556 13.7027 13.8675C13.6463 13.8794 13.5928 13.8809 13.5424 13.872C13.4919 13.8601 13.4474 13.8423 13.4088 13.8185C13.3702 13.7918 13.3405 13.7651 13.3197 13.7384L12.9323 13.2173L14.9184 11.5341H15.9293V17.096H17.047ZM19.4568 13.8541C19.5904 13.8274 19.7181 13.8081 19.8398 13.7962C19.9645 13.7844 20.0847 13.7784 20.2005 13.7784C20.5389 13.7784 20.8373 13.8304 21.0956 13.9343C21.3568 14.0352 21.575 14.1748 21.7502 14.3529C21.9283 14.531 22.0619 14.7403 22.151 14.9808C22.24 15.2212 22.2846 15.4795 22.2846 15.7556C22.2846 16.1 22.2237 16.4147 22.102 16.6997C21.9803 16.9817 21.811 17.2252 21.5943 17.43C21.3806 17.6319 21.1238 17.7892 20.8239 17.902C20.5271 18.0148 20.202 18.0713 19.8487 18.0713C19.6439 18.0713 19.4479 18.049 19.2609 18.0045C19.0739 17.9629 18.8987 17.9065 18.7354 17.8352C18.5751 17.761 18.4252 17.6764 18.2857 17.5814C18.1461 17.4864 18.0214 17.387 17.9116 17.283L18.2901 16.7665C18.3703 16.6566 18.4742 16.6017 18.6018 16.6017C18.682 16.6017 18.7607 16.6255 18.8378 16.673C18.915 16.7205 19.0026 16.7739 19.1006 16.8333C19.1985 16.8897 19.3128 16.9416 19.4435 16.9891C19.5741 17.0366 19.7329 17.0604 19.9199 17.0604C20.1129 17.0604 20.2807 17.0292 20.4232 16.9669C20.5657 16.9016 20.6829 16.814 20.7749 16.7041C20.8699 16.5913 20.9397 16.4592 20.9842 16.3078C21.0317 16.1534 21.0555 15.9887 21.0555 15.8135C21.0555 15.478 20.959 15.2198 20.766 15.0387C20.576 14.8546 20.2985 14.7626 19.9333 14.7626C19.6335 14.7626 19.3321 14.819 19.0293 14.9318L18.2678 14.718L18.8111 11.5385H22.053V12.0551C22.053 12.1412 22.0396 12.2198 22.0129 12.2911C21.9892 12.3594 21.9476 12.4202 21.8882 12.4737C21.8318 12.5241 21.7576 12.5642 21.6656 12.5939C21.5765 12.6206 21.4667 12.634 21.336 12.634H19.6661L19.4568 13.8541Z" fill="white"/>
</svg>
